# xmcd CD database file
#
# Track frame offsets:
#	150
#	44465
#	58828
#	77817
#	99748
#	129814
#	151545
#	174371
#
# Disc length: 2675 seconds
#
# Revision: 5
# Processed by: cddbd v1.5.2PL0 Copyright (c) Steve Scherf et al.
# Submitted via: CDex 1.50beta10
#
DISCID=590a7108
DTITLE=Red Garland - Red Garland's Piano
DYEAR=1900
DGENRE=Jazz
TTITLE0=Please Send Me Someone To Love
TTITLE1=Stompin' At The Savoy
TTITLE2=The Very Thought Of You
TTITLE3=Almost Like Being In Love
TTITLE4=If I Were A Bell
TTITLE5=I Know Why
TTITLE6=I Can't Give You Anything But Love
TTITLE7=But Not For Me
EXTD=
EXTT0=
EXTT1=
EXTT2=
EXTT3=
EXTT4=
EXTT5=
EXTT6=
EXTT7=
PLAYORDER=
